<svg width="26" height="27" viewBox="0 0 26 27" fill="none" xmlns="http://www.w3.org/2000/svg">
<g id="vuesax/linear/ticket-discount">
<g id="ticket-discount">
<path id="Vector" d="M20.4522 13.8056C20.4522 12.2814 21.6268 11.0445 23.0742 11.0445V9.94C23.0742 5.52218 22.0254 4.41772 17.8301 4.41772H7.3418C3.14649 4.41772 2.09766 5.52218 2.09766 9.94V10.4922C3.54504 10.4922 4.71973 11.7292 4.71973 13.2534C4.71973 14.7775 3.54504 16.0145 2.09766 16.0145V16.5667C2.09766 20.9845 3.14649 22.089 7.3418 22.089H17.8301C22.0254 22.089 23.0742 20.9845 23.0742 16.5667C21.6268 16.5667 20.4522 15.3297 20.4522 13.8056Z" stroke="white" stroke-width="2" stroke-linecap="round" stroke-linejoin="round"/>
<path id="Vector_2" d="M9.43945 16.2908L15.7324 9.66406" stroke="white" stroke-width="2" stroke-linecap="round" stroke-linejoin="round"/>
<path id="Vector_3" d="M15.7267 16.2908H15.7361" stroke="white" stroke-width="2" stroke-linecap="round" stroke-linejoin="round"/>
<path id="Vector_4" d="M9.43369 10.2163H9.44311" stroke="white" stroke-width="2" stroke-linecap="round" stroke-linejoin="round"/>
</g>
</g>
</svg>
