<svg width="26" height="25" viewBox="0 0 26 25" fill="none" xmlns="http://www.w3.org/2000/svg">
<g id="vuesax/linear/discount-shape">
<path id="Vector" d="M4.67266 15.2714L3.0972 13.688C2.45458 13.0422 2.45458 11.9797 3.0972 11.3338L4.67266 9.75048C4.94214 9.47965 5.15981 8.9484 5.15981 8.5734V6.33379C5.15981 5.41712 5.90609 4.66714 6.8182 4.66714H9.04664C9.41978 4.66714 9.9484 4.44843 10.2179 4.17759L11.7933 2.59424C12.436 1.9484 13.4932 1.9484 14.1358 2.59424L15.7113 4.17759C15.9808 4.44843 16.5094 4.66714 16.8825 4.66714H19.111C20.0231 4.66714 20.7693 5.41712 20.7693 6.33379V8.5734C20.7693 8.9484 20.987 9.47965 21.2565 9.75048L22.832 11.3338C23.4746 11.9797 23.4746 13.0422 22.832 13.688L21.2565 15.2714C20.987 15.5422 20.7693 16.0735 20.7693 16.4485V18.6879C20.7693 19.6046 20.0231 20.3547 19.111 20.3547H16.8825C16.5094 20.3547 15.9808 20.5734 15.7113 20.8443L14.1358 22.4276C13.4932 23.0734 12.436 23.0734 11.7933 22.4276L10.2179 20.8443C9.9484 20.5734 9.41978 20.3547 9.04664 20.3547H6.8182C5.90609 20.3547 5.15981 19.6046 5.15981 18.6879V16.4485C5.15981 16.063 4.94214 15.5318 4.67266 15.2714Z" stroke="white" stroke-width="2" stroke-linecap="round" stroke-linejoin="round"/>
<path id="Vector_2" d="M9.86621 15.625L16.0852 9.375" stroke="white" stroke-width="2" stroke-linecap="round" stroke-linejoin="round"/>
<path id="Vector_3" d="M15.5614 15.1041H15.5707" stroke="white" stroke-width="2" stroke-linecap="round" stroke-linejoin="round"/>
<path id="Vector_4" d="M10.3788 9.89583H10.3881" stroke="white" stroke-width="2" stroke-linecap="round" stroke-linejoin="round"/>
</g>
</svg>
