<svg width="14" height="19" viewBox="0 0 14 19" fill="none" xmlns="http://www.w3.org/2000/svg">
<path id="Shape" fill-rule="evenodd" clip-rule="evenodd" d="M13.8023 2.48926C13.8023 3.31768 13.1312 3.98926 12.3033 3.98926C11.4755 3.98926 10.8044 3.31768 10.8044 2.48926C10.8044 1.66083 11.4755 0.989258 12.3033 0.989258C13.1312 0.989258 13.8023 1.66083 13.8023 2.48926ZM11.9857 5.00597C12.5284 5.10653 12.8868 5.62829 12.7863 6.17134L12.1301 9.71761C11.7792 11.6136 10.1266 12.9893 8.19978 12.9893H5.41493C4.45152 12.9893 3.62523 13.6771 3.4498 14.6251L2.79355 18.1713C2.69305 18.7144 2.17168 19.0731 1.62902 18.9725C1.08636 18.872 0.727913 18.3502 0.828407 17.8072L1.48466 14.2609C1.83551 12.3649 3.4881 10.9893 5.41493 10.9893H8.19978C9.1632 10.9893 9.9895 10.3014 10.1649 9.35343L10.8212 5.80716C10.9217 5.26411 11.443 4.9054 11.9857 5.00597ZM3.51682 3.28215C3.12658 2.89163 2.49387 2.89163 2.10363 3.28215C1.71339 3.67268 1.71339 4.30584 2.10363 4.69636L3.39559 5.98926L2.10363 7.28215C1.71339 7.67268 1.71339 8.30584 2.10363 8.69636C2.49387 9.08689 3.12658 9.08689 3.51682 8.69636L5.51537 6.69636C5.90561 6.30584 5.90561 5.67268 5.51537 5.28215L3.51682 3.28215Z" fill="black"/>
</svg>
