<svg width="20" height="18" viewBox="0 0 20 18" fill="none" xmlns="http://www.w3.org/2000/svg">
<g id="Shape">
<path d="M2.98904 2.98926H16.9789C17.5308 2.98926 17.9782 3.43697 17.9782 3.98926V10.9893C17.9782 11.5415 17.5308 11.9893 16.9789 11.9893H15.2576L15.3121 12.1596L15.5349 12.8355L15.6622 13.2393L15.7654 13.5928L15.7674 13.6001C15.8051 13.7369 15.8376 13.8656 15.865 13.9893H16.9789C18.6346 13.9893 19.9767 12.6461 19.9767 10.9893V3.98926C19.9767 2.3324 18.6346 0.989258 16.9789 0.989258H2.98904C1.33338 0.989258 -0.00878906 2.3324 -0.00878906 3.98926V10.9893C-0.00878906 12.6461 1.33338 13.9893 2.98904 13.9893H4.71026L4.65588 13.8193L4.43305 13.1434L4.30571 12.7396L4.20253 12.3861L4.20051 12.3788C4.16276 12.2419 4.13027 12.113 4.10285 11.9893H2.98904C2.43715 11.9893 1.98976 11.5415 1.98976 10.9893V3.98926C1.98976 3.43697 2.43715 2.98926 2.98904 2.98926Z" fill="black"/>
<path d="M6.93339 8.09505C7.42701 8.34204 7.62709 8.94271 7.38028 9.43669L7.31521 9.58075C7.27679 9.67234 7.23103 9.79155 7.18468 9.93071C7.05974 10.3058 6.98614 10.6741 6.98614 10.9895C6.98614 11.0451 6.99153 11.1085 7.00325 11.1837L7.03543 11.3508L7.08618 11.556L7.20084 11.9502L7.3668 12.4688L7.58698 13.1367L7.71115 13.5302L7.80918 13.8659C7.93772 14.3324 7.98542 14.6451 7.98542 14.9895C7.98542 15.5491 7.87165 16.1183 7.68432 16.6807C7.61091 16.9011 7.53677 17.0905 7.47115 17.2411L7.38028 17.4367C7.13347 17.9307 6.53324 18.1309 6.03961 17.8839C5.54599 17.6369 5.34591 17.0362 5.59272 16.5423L5.6578 16.3982C5.69622 16.3066 5.74197 16.1874 5.78833 16.0482C5.91327 15.6732 5.98687 15.3049 5.98687 14.9895C5.98687 14.9339 5.98148 14.8704 5.96976 14.7953L5.93758 14.6282L5.88683 14.423L5.77217 14.0288L5.60621 13.5102L5.38603 12.8423L5.26186 12.4488L5.16383 12.113C5.03529 11.6466 4.98759 11.3338 4.98759 10.9895C4.98759 10.4299 5.10135 9.86066 5.28869 9.29825C5.3621 9.07787 5.43624 8.88842 5.50185 8.73788L5.59272 8.54226C5.83953 8.04828 6.43977 7.84806 6.93339 8.09505Z" fill="black"/>
<path d="M11.3066 13.8659C11.4352 14.3324 11.4829 14.6451 11.4829 14.9895C11.4829 15.5491 11.3691 16.1183 11.1818 16.6807C11.1084 16.9011 11.0342 17.0905 10.9686 17.2411L10.8777 17.4367C10.6309 17.9307 10.0307 18.1309 9.53708 17.8839C9.04346 17.6369 8.84338 17.0362 9.09019 16.5423L9.15526 16.3982C9.19368 16.3066 9.23944 16.1874 9.28579 16.0482C9.41073 15.6732 9.48433 15.3049 9.48433 14.9895C9.48433 14.9339 9.47894 14.8704 9.46722 14.7953L9.43505 14.6282L9.38429 14.423L9.26963 14.0288L9.10367 13.5102L8.88349 12.8423L8.75933 12.4488L8.66129 12.113C8.53276 11.6466 8.48506 11.3338 8.48506 10.9895C8.48506 10.4299 8.59882 9.86066 8.78615 9.29825C8.85956 9.07787 8.93371 8.88842 8.99932 8.73788L9.09019 8.54226C9.337 8.04828 9.93724 7.84806 10.4309 8.09505C10.9245 8.34204 11.1246 8.94271 10.8777 9.43669L10.8127 9.58075C10.7743 9.67234 10.7285 9.79155 10.6821 9.93071C10.5572 10.3058 10.4836 10.6741 10.4836 10.9895C10.4836 11.0451 10.489 11.1085 10.5007 11.1837L10.5329 11.3508L10.5836 11.556L10.6983 11.9502L10.8643 12.4688L11.0844 13.1367L11.2086 13.5302L11.3066 13.8659Z" fill="black"/>
<path d="M14.8041 13.8659C14.9326 14.3324 14.9803 14.6451 14.9803 14.9895C14.9803 15.5491 14.8666 16.1183 14.6792 16.6807C14.6058 16.9011 14.5317 17.0905 14.4661 17.2411L14.3752 17.4367C14.1284 17.9307 13.5282 18.1309 13.0345 17.8839C12.5409 17.6369 12.3408 17.0362 12.5877 16.5423L12.6527 16.3982C12.6912 16.3066 12.7369 16.1874 12.7833 16.0482C12.9082 15.6732 12.9818 15.3049 12.9818 14.9895C12.9818 14.9339 12.9764 14.8704 12.9647 14.7953L12.9325 14.6282L12.8818 14.423L12.7671 14.0288L12.6011 13.5102L12.381 12.8423L12.2568 12.4488L12.1588 12.113C12.0302 11.6466 11.9825 11.3338 11.9825 10.9895C11.9825 10.4299 12.0963 9.86066 12.2836 9.29825C12.357 9.07787 12.4312 8.88842 12.4968 8.73788L12.5877 8.54226C12.8345 8.04828 13.4347 7.84806 13.9283 8.09505C14.4219 8.34204 14.622 8.94271 14.3752 9.43669L14.3101 9.58075C14.2717 9.67234 14.226 9.79155 14.1796 9.93071C14.0547 10.3058 13.9811 10.6741 13.9811 10.9895C13.9811 11.0451 13.9865 11.1085 13.9982 11.1837L14.0304 11.3508L14.0811 11.556L14.1958 11.9502L14.3617 12.4688L14.5819 13.1367L14.7061 13.5302L14.8041 13.8659Z" fill="black"/>
</g>
</svg>
