<svg width="23" height="15" viewBox="0 0 23 15" fill="none" xmlns="http://www.w3.org/2000/svg">
<path id="Shape" fill-rule="evenodd" clip-rule="evenodd" d="M11.601 12.9893C14.3583 12.9893 16.5936 10.7507 16.5936 7.98926C16.5936 5.22783 14.3583 2.98926 11.601 2.98926C8.84364 2.98926 6.60837 5.22783 6.60837 7.98926C6.60837 10.7507 8.84364 12.9893 11.601 12.9893ZM11.601 14.9893C15.4613 14.9893 18.5907 11.8553 18.5907 7.98926C18.5907 4.12326 15.4613 0.989258 11.601 0.989258C7.7407 0.989258 4.61132 4.12326 4.61132 7.98926C4.61132 11.8553 7.7407 14.9893 11.601 14.9893ZM4.21172 1.18975C4.65266 1.52144 4.74162 2.14831 4.41042 2.58989C3.28231 4.09399 2.61424 5.96208 2.61424 7.98932C2.61424 10.0166 3.28231 11.8846 4.41042 13.3887C4.74162 13.8303 4.65266 14.4572 4.21172 14.7889C3.77079 15.1206 3.14484 15.0315 2.81364 14.5899C1.43469 12.7513 0.617188 10.4645 0.617188 7.98932C0.617188 5.51413 1.43469 3.22729 2.81364 1.38874C3.14484 0.94715 3.77078 0.85806 4.21172 1.18975ZM18.9902 1.18975C19.4311 0.85806 20.0571 0.94715 20.3883 1.38874C21.7672 3.22729 22.5847 5.51413 22.5847 7.98932C22.5847 10.4645 21.7672 12.7513 20.3883 14.5899C20.0571 15.0315 19.4311 15.1206 18.9902 14.7889C18.5493 14.4572 18.4603 13.8303 18.7915 13.3887C19.9196 11.8846 20.5877 10.0166 20.5877 7.98932C20.5877 5.96208 19.9196 4.09399 18.7915 2.58989C18.4603 2.14831 18.5493 1.52144 18.9902 1.18975ZM14.9183 8.88086C14.9297 8.93294 14.9353 8.99072 14.9353 9.0542C14.9353 9.1307 14.9232 9.19906 14.8988 9.25928C14.8744 9.3195 14.8338 9.36751 14.7769 9.40332C14.7216 9.43913 14.6469 9.45703 14.5526 9.45703C14.4697 9.45703 14.3958 9.44645 14.3308 9.42529C14.2674 9.40251 14.2138 9.36914 14.1699 9.3252C14.126 9.27962 14.0935 9.2194 14.0724 9.14453C14.0512 9.06803 14.0407 8.97607 14.0407 8.86865H13.3264C13.3264 9.07048 13.3581 9.24544 13.4215 9.39355C13.4848 9.54004 13.5718 9.6613 13.6823 9.75732C13.7944 9.85173 13.9237 9.92253 14.0699 9.96973C14.2162 10.0153 14.3714 10.0381 14.5355 10.0381C14.7046 10.0381 14.8573 10.0145 14.9938 9.96729C15.132 9.92008 15.2498 9.85335 15.3473 9.76709C15.4448 9.6792 15.5188 9.57503 15.5692 9.45459C15.6212 9.33252 15.6472 9.19743 15.6472 9.04932C15.6472 8.89958 15.6261 8.76611 15.5838 8.64893C15.5415 8.53174 15.479 8.42676 15.3961 8.33398C15.3132 8.23958 15.21 8.15495 15.0865 8.08008C14.963 8.00358 14.8208 7.93359 14.6599 7.87012C14.577 7.83756 14.5006 7.8042 14.4307 7.77002C14.3625 7.73584 14.3031 7.70085 14.2528 7.66504C14.2024 7.6276 14.1626 7.5861 14.1333 7.54053C14.1057 7.49333 14.0919 7.44043 14.0919 7.38184C14.0919 7.30371 14.1057 7.23372 14.1333 7.17188C14.1626 7.1084 14.2064 7.05876 14.2649 7.02295C14.3251 6.98551 14.4007 6.9668 14.4917 6.9668C14.5892 6.9668 14.6688 6.98877 14.7306 7.03271C14.7923 7.07666 14.837 7.1377 14.8646 7.21582C14.8939 7.29232 14.9085 7.38102 14.9085 7.48193H15.6204C15.6204 7.26872 15.574 7.07992 15.4814 6.91553C15.3904 6.75114 15.2612 6.62174 15.0938 6.52734C14.928 6.43294 14.7314 6.38574 14.5038 6.38574C14.3365 6.38574 14.1845 6.40934 14.048 6.45654C13.9131 6.50374 13.7953 6.57129 13.6945 6.65918C13.5937 6.74544 13.5157 6.84961 13.4605 6.97168C13.4068 7.09375 13.38 7.22965 13.38 7.37939C13.38 7.53239 13.4085 7.66585 13.4653 7.77979C13.5239 7.89209 13.6027 7.98975 13.7018 8.07275C13.801 8.15576 13.9123 8.229 14.0358 8.29248C14.1593 8.35433 14.2869 8.41292 14.4185 8.46826C14.529 8.51546 14.6184 8.56104 14.6867 8.60498C14.7566 8.64893 14.8094 8.69287 14.8451 8.73682C14.8825 8.78076 14.9069 8.82878 14.9183 8.88086ZM9.17237 6.43457H8.99441H8.69456H8.52392L7.41471 9.98926H8.168L8.35939 9.25684H9.34055L9.53317 9.98926H10.2913L9.17237 6.43457ZM9.18453 8.66357H8.51442L8.84841 7.38551L9.18453 8.66357ZM11.3445 9.39844V8.43896H11.8271H11.8296C11.9206 8.43896 11.9929 8.45931 12.0465 8.5C12.1002 8.53906 12.1384 8.59603 12.1611 8.6709C12.1855 8.74577 12.1977 8.83366 12.1977 8.93457C12.1977 9.02409 12.1847 9.10384 12.1587 9.17383C12.1327 9.24219 12.0904 9.29671 12.0319 9.3374C11.9734 9.37809 11.897 9.39844 11.8028 9.39844H11.3445ZM12.4927 8.11426C12.4688 8.12938 12.4434 8.14322 12.4167 8.15578C12.482 8.17418 12.5398 8.20103 12.5902 8.23633C12.7039 8.31445 12.7852 8.41699 12.834 8.54395C12.8843 8.66927 12.9095 8.80273 12.9095 8.94434C12.9095 9.1722 12.8665 9.36426 12.7803 9.52051C12.6958 9.67513 12.5715 9.79232 12.4073 9.87207C12.2432 9.9502 12.0417 9.98926 11.8028 9.98926H11.3445H10.8983H10.6302V6.43457H11.7248C11.9019 6.43457 12.0604 6.4541 12.2001 6.49316C12.3399 6.53223 12.4585 6.59163 12.556 6.67139C12.6536 6.75114 12.7275 6.85205 12.7779 6.97412C12.8299 7.09619 12.8559 7.24023 12.8559 7.40625C12.8559 7.55273 12.8266 7.68783 12.7681 7.81152C12.7096 7.93522 12.6178 8.03613 12.4927 8.11426ZM11.9563 7.87256C11.8946 7.90511 11.815 7.92139 11.7174 7.92139H11.3445V7.02783H11.7248C11.8239 7.02783 11.9043 7.04329 11.9661 7.07422C12.0279 7.10514 12.0725 7.15397 12.1002 7.2207C12.1278 7.28581 12.1416 7.37288 12.1416 7.48193C12.1416 7.57633 12.1262 7.6569 12.0953 7.72363C12.066 7.78874 12.0197 7.83838 11.9563 7.87256Z" fill="black"/>
</svg>
