<svg width="12" height="21" viewBox="0 0 12 21" fill="none" xmlns="http://www.w3.org/2000/svg">
<path id="Shape" fill-rule="evenodd" clip-rule="evenodd" d="M5.58033 1.07578C5.94082 0.915111 6.36203 0.981801 6.65535 1.24598L11.6517 5.74598C11.8623 5.93563 11.9825 6.20579 11.9825 6.48928C11.9825 6.77276 11.8623 7.04293 11.6517 7.23257L7.48064 10.9893L11.6517 14.746C11.8623 14.9356 11.9825 15.2058 11.9825 15.4893C11.9825 15.7728 11.8623 16.0429 11.6517 16.2326L6.65535 20.7326C6.36203 20.9968 5.94082 21.0634 5.58033 20.9028C5.21984 20.7421 4.9876 20.3842 4.9876 19.9893V13.2346L1.65898 16.2326C1.24876 16.602 0.616931 16.5688 0.24774 16.1582C-0.121452 15.7477 -0.0881977 15.1154 0.322015 14.746L4.49311 10.9893L0.322015 7.23257C-0.0881977 6.86311 -0.121452 6.23082 0.24774 5.82031C0.616931 5.4098 1.24876 5.37652 1.65898 5.74598L4.9876 8.74391V1.98928C4.9876 1.59437 5.21984 1.23644 5.58033 1.07578ZM6.98615 13.2346L9.48949 15.4893L6.98615 17.7439V13.2346ZM6.98615 8.74391V4.23464L9.48949 6.48928L6.98615 8.74391Z" fill="black"/>
</svg>
