<svg width="20" height="21" viewBox="0 0 20 21" fill="none" xmlns="http://www.w3.org/2000/svg">
<path id="Shape" fill-rule="evenodd" clip-rule="evenodd" d="M9.98397 20.9893C15.5028 20.9893 19.9767 16.5121 19.9767 10.9893C19.9767 5.46641 15.5028 0.989258 9.98397 0.989258C4.46512 0.989258 -0.00878906 5.46641 -0.00878906 10.9893C-0.00878906 16.5121 4.46512 20.9893 9.98397 20.9893ZM17.7263 12.9893C17.8907 12.35 17.9782 11.6799 17.9782 10.9893C17.9782 10.2987 17.8907 9.6285 17.7263 8.98926H14.8378C14.9291 9.61813 14.9803 10.2848 14.9803 10.9892C14.9803 11.6936 14.9291 12.3604 14.8377 12.9893H17.7263ZM12.8143 12.9893H7.15367C7.04728 12.3694 6.98614 11.7028 6.98614 10.9892C6.98614 10.2757 7.04728 9.60913 7.15367 8.98926H12.8143C12.9207 9.60913 12.9818 10.2757 12.9818 10.9892C12.9818 11.7028 12.9207 12.3694 12.8143 12.9893ZM14.3862 6.98926H16.9087C15.9632 5.35366 14.4557 4.08412 12.6505 3.4451C12.7049 3.52288 12.7594 3.60269 12.814 3.68453C13.3944 4.55583 13.9731 5.65815 14.3862 6.98926ZM9.98397 3.34206C10.3102 3.67741 10.7299 4.1617 11.1511 4.79393C11.5502 5.39305 11.9505 6.12442 12.2746 6.98926H7.69336C8.01743 6.12442 8.41774 5.39305 8.81687 4.79393C9.23805 4.1617 9.65772 3.67741 9.98397 3.34206ZM12.2746 14.9893C11.9505 15.8541 11.5502 16.5854 11.1511 17.1845C10.7299 17.8168 10.3102 18.3011 9.98397 18.6364C9.65772 18.3011 9.23805 17.8168 8.81687 17.1845C8.41775 16.5854 8.01744 15.8541 7.69338 14.9893H12.2746ZM12.6504 18.5334C12.7049 18.4556 12.7594 18.3758 12.814 18.2939C13.3944 17.4226 13.9731 16.3203 14.3861 14.9893H16.9087C15.9632 16.6249 14.4557 17.8944 12.6504 18.5334ZM4.98759 10.9892C4.98759 10.2848 5.03882 9.61813 5.13019 8.98926H2.24162C2.07721 9.6285 1.98976 10.2987 1.98976 10.9893C1.98976 11.6799 2.07721 12.35 2.24162 12.9893H5.13019C5.03882 12.3604 4.98759 11.6936 4.98759 10.9892ZM7.15397 3.68453C7.20849 3.60269 7.26303 3.52289 7.31745 3.4451C5.5122 4.08412 4.0047 5.35366 3.05925 6.98926H5.58179C5.99485 5.65815 6.57352 4.55583 7.15397 3.68453ZM3.05925 14.9893H5.5818C5.99487 16.3203 6.57353 17.4226 7.15397 18.2939C7.2085 18.3758 7.26306 18.4556 7.3175 18.5334C5.51222 17.8944 4.00471 16.6249 3.05925 14.9893Z" fill="black"/>
</svg>
