<svg width="17" height="21" viewBox="0 0 17 21" fill="none" xmlns="http://www.w3.org/2000/svg">
<g id="Shape">
<path d="M11.6599 3.14298C12.7986 3.3674 13.87 3.83139 14.804 4.49794C14.8829 4.55427 14.9609 4.61205 15.0378 4.67126L15.0408 4.67356C15.0662 4.69297 15.0922 4.71127 15.1188 4.72846C15.1479 4.74728 15.1777 4.76476 15.2081 4.78089C15.6306 5.00549 16.1622 4.96786 16.5079 4.6253C16.9021 4.23478 16.905 3.59715 16.4735 3.24756C16.4083 3.19479 16.3425 3.14285 16.2761 3.09176C15.0421 2.14212 13.5975 1.48565 12.0537 1.18141C10.0958 0.795557 8.06633 0.993591 6.22201 1.75047C4.37769 2.50734 2.80132 3.78907 1.69225 5.43356C0.583175 7.07805 -0.00878906 9.01145 -0.00878906 10.9893C-0.00878906 12.9671 0.583177 14.9005 1.69225 16.545C2.80132 18.1895 4.37769 19.4712 6.22201 20.2281C8.06633 20.9849 10.0958 21.183 12.0537 20.7971C13.5975 20.4929 15.0421 19.8364 16.2761 18.8868C16.3425 18.8357 16.4083 18.7837 16.4735 18.731C16.905 18.3814 16.9021 17.7437 16.5079 17.3532C16.1622 17.0107 15.6306 16.973 15.2081 17.1976C15.1777 17.2138 15.1479 17.2312 15.1188 17.2501C15.0922 17.2672 15.0662 17.2855 15.0408 17.305L15.0378 17.3073C14.0506 18.067 12.8949 18.5922 11.6599 18.8355C10.0935 19.1442 8.46998 18.9858 6.99452 18.3803C5.51906 17.7748 4.25797 16.7494 3.37071 15.4338C2.48346 14.1182 2.00988 12.5715 2.00988 10.9893C2.00988 9.40701 2.48345 7.86029 3.37071 6.5447C4.25797 5.22911 5.51906 4.20373 6.99452 3.59823C8.46997 2.99273 10.0935 2.8343 11.6599 3.14298Z" fill="black"/>
<path d="M14.3742 11.4223C14.7107 11.2298 14.7107 10.7487 14.3742 10.5562L8.31823 7.09215C7.98179 6.8997 7.56123 7.14026 7.56123 7.52516V14.4534C7.56123 14.8383 7.98179 15.0788 8.31823 14.8864L14.3742 11.4223Z" fill="black"/>
</g>
</svg>
