<svg width="21" height="20" viewBox="0 0 21 20" fill="none" xmlns="http://www.w3.org/2000/svg">
<path id="Shape" fill-rule="evenodd" clip-rule="evenodd" d="M20.299 10C20.299 15.5228 15.7801 20 10.2057 20C4.63125 20 0.112305 15.5228 0.112305 10C0.112305 4.47715 4.63125 0 10.2057 0C15.7801 0 20.299 4.47715 20.299 10ZM8.95679 17.9049C8.29184 16.2879 6.39115 11.9069 5.15898 11.5C4.29718 11.2154 3.10835 11.2548 2.24402 11.3416C2.8197 14.7196 5.53246 17.3781 8.95679 17.9049ZM2.4635 7.72049C3.45416 4.41274 6.54552 2 10.2057 2C13.8658 2 16.9572 4.41274 17.9478 7.72049C16.3543 7.42464 13.4943 7 10.2057 7C6.91706 7 4.05704 7.42464 2.4635 7.72049ZM18.1673 11.3416C17.303 11.2548 16.1141 11.2154 15.2523 11.5C14.0202 11.9069 12.1195 16.2879 11.4545 17.9049C14.8789 17.3781 17.5916 14.7196 18.1673 11.3416Z" fill="black"/>
</svg>
