<svg width="21" height="21" viewBox="0 0 21 21" fill="none" xmlns="http://www.w3.org/2000/svg">
<path id="Shape" fill-rule="evenodd" clip-rule="evenodd" d="M18.7985 10.9893C18.7985 15.4075 15.2194 18.9893 10.8043 18.9893C6.3892 18.9893 2.81008 15.4075 2.81008 10.9893C2.81008 6.57098 6.3892 2.98926 10.8043 2.98926C15.2194 2.98926 18.7985 6.57098 18.7985 10.9893ZM20.797 10.9893C20.797 16.5121 16.3231 20.9893 10.8043 20.9893C5.28543 20.9893 0.811523 16.5121 0.811523 10.9893C0.811523 5.46641 5.28543 0.989258 10.8043 0.989258C16.3231 0.989258 20.797 5.46641 20.797 10.9893ZM16.7998 10.9893C16.7998 14.303 14.1155 16.9893 10.8042 16.9893C7.49288 16.9893 4.80853 14.303 4.80853 10.9893C4.80853 7.67555 7.49288 4.98926 10.8042 4.98926C14.1155 4.98926 16.7998 7.67555 16.7998 10.9893ZM13.802 8.48926C13.802 9.31769 13.1309 9.98926 12.303 9.98926C11.4752 9.98926 10.8041 9.31769 10.8041 8.48926C10.8041 7.66083 11.4752 6.98926 12.303 6.98926C13.1309 6.98926 13.802 7.66083 13.802 8.48926Z" fill="black"/>
</svg>
