<svg width="40" height="40" viewBox="0 0 40 40" fill="none" xmlns="http://www.w3.org/2000/svg">
<g id="Group 17">
<circle id="Ellipse 4" cx="20.0489" cy="20" r="19.4727" fill="#2E90FA"/>
<mask id="mask0_1666_1424" style="mask-type:alpha" maskUnits="userSpaceOnUse" x="0" y="0" width="40" height="40">
<circle id="Ellipse 3" cx="20.0489" cy="20" r="19.4727" fill="white"/>
</mask>
<g mask="url(#mask0_1666_1424)">
<g id="gee_me_027">
<g id="upper limb">
<path id="17" d="M10.9806 31.5727C12.2862 28.6405 14.42 28.8618 15.3267 28.9728L13.6342 39.1356L8.54103 42.2947C7.54213 40.9179 8.86134 36.7994 8.94596 36.4635C9.2307 35.3333 9.97411 33.8331 10.9806 31.5727Z" fill="#333742"/>
<path id="16" d="M29.5746 31.6135C28.269 28.6813 26.1352 28.9025 25.2285 29.0136L26.921 39.1764L31.812 37.3004C31.677 36.8684 31.5727 36.6104 31.4881 36.2745C31.2033 35.1443 30.581 33.8739 29.5746 31.6135Z" fill="#343844"/>
<path id="15" d="M13.6051 30.7707C13.8296 29.1381 15.199 27.9407 16.8475 27.9225L20.5719 27.8812L24.0036 28.2428C25.5726 28.4081 26.8455 29.6268 27.0521 31.1956C27.5024 34.6145 28.2014 40.5948 28.2014 44.7755C28.2014 50.9428 29.1819 51.5326 27.6637 52.3407C26.1455 53.1488 13.9989 53.035 12.3405 51.7822C10.6821 50.5294 11.7133 49.2242 11.7133 46.6662C11.7133 44.7816 12.9525 35.5182 13.6051 30.7707Z" fill="#383C48"/>
<path id="14" d="M20.0887 33.1052C21.5611 33.1052 22.7546 31.5243 22.7546 29.574C22.7546 27.6238 21.5611 26.0428 20.0887 26.0428C18.6164 26.0428 17.4229 27.6238 17.4229 29.574C17.4229 31.5243 18.6164 33.1052 20.0887 33.1052Z" fill="#2E2A2B"/>
<rect id="13" x="18.2871" y="25.233" width="3.72551" height="6.20918" rx="1.86275" fill="#EBBAAA"/>
<path id="12" d="M18.0976 33.302C16.3384 32.9602 12.5449 29.2433 14.5241 27.3208C15.7886 25.7187 17.8227 27.8549 18.0976 28.9229C18.3175 29.7774 18.9223 31.8779 19.3071 32.4475C19.7469 32.857 19.8569 33.6438 18.0976 33.302Z" fill="#40424E"/>
<path id="11" d="M22.2549 33.302C24.0142 32.9602 27.8077 29.2433 25.8285 27.3208C24.564 25.7187 22.5299 27.8549 22.2549 28.9229C22.0351 29.7774 21.4303 31.8779 21.0454 32.4475C20.6056 32.857 20.4957 33.6438 22.2549 33.302Z" fill="#40424E"/>
<path id="10" d="M17.9248 32.0289C18.1292 32.0289 18.2957 32.1911 18.3026 32.3938L18.3028 32.4068V39.9427C18.3028 40.1514 18.1336 40.3206 17.9248 40.3206C17.7204 40.3206 17.5539 40.1584 17.5471 39.9557L17.5469 39.9427V32.4068C17.5469 32.1981 17.7161 32.0289 17.9248 32.0289Z" fill="#2E2A2B"/>
<path id="09" d="M22.3164 32.0289C22.5208 32.0289 22.6873 32.1911 22.6942 32.3938L22.6944 32.4068V41.0819C22.6944 41.2906 22.5252 41.4599 22.3164 41.4599C22.112 41.4599 21.9455 41.2976 21.9387 41.0949L21.9385 41.0819V32.4068C21.9385 32.1981 22.1077 32.0289 22.3164 32.0289Z" fill="#2E2A2B"/>
<path id="07" fill-rule="evenodd" clip-rule="evenodd" d="M25.167 35.8501C25.167 35.7788 25.1508 35.7216 25.1098 35.6817C25.0774 35.6493 25.0277 35.6277 24.9586 35.6179L24.8658 35.605C24.8388 35.6017 24.8226 35.592 24.8129 35.5823C24.801 35.5704 24.7977 35.5564 24.7977 35.5467C24.7977 35.5132 24.8247 35.4754 24.8906 35.4754L24.8965 35.4754C24.9312 35.4752 24.9905 35.4749 25.0364 35.5208L25.1552 35.402C25.0893 35.3361 25.0061 35.3102 24.896 35.3102C24.7211 35.3102 24.6152 35.4128 24.6152 35.5531C24.6152 35.619 24.6325 35.6709 24.6682 35.7076C24.7027 35.7432 24.7545 35.7659 24.8226 35.7756L24.9154 35.7886C24.9403 35.7918 24.9565 35.7994 24.9662 35.8091C24.977 35.821 24.9813 35.8361 24.9813 35.8544C24.9813 35.8987 24.9457 35.9235 24.8712 35.9235C24.8096 35.9235 24.7394 35.9095 24.6995 35.8695L24.5785 35.9905C24.6563 36.0704 24.7524 36.092 24.8701 36.092C25.0321 36.092 25.167 36.0067 25.167 35.8501ZM24.495 35.3167V36.0855H24.306V35.3167H24.495ZM24.2095 36.0858L24.0432 35.765C24.1037 35.7348 24.1685 35.6689 24.1685 35.5642C24.1685 35.4378 24.0767 35.3169 23.9061 35.3169H23.6016V36.0858H23.7905V35.7996H23.8542L23.9903 36.0858H24.2095ZM23.9795 35.5639C23.9795 35.6039 23.9493 35.6417 23.8974 35.6417H23.7905V35.4862H23.8974C23.9493 35.4862 23.9795 35.524 23.9795 35.5639ZM25.8136 35.9171V36.0855H25.2909V35.3167H25.8136V35.4851H25.4799V35.6136H25.765V35.7821H25.4799V35.9171H25.8136Z" fill="white"/>
<path id="06" fill-rule="evenodd" clip-rule="evenodd" d="M24.4325 36.5607V36.6676C24.4325 36.7918 24.413 36.8641 24.3547 36.9235C24.2889 36.9915 24.2154 37.0099 24.1312 37.0099C24.0416 37.0099 23.9735 36.9797 23.9174 36.9235C23.8394 36.8455 23.8395 36.7425 23.8396 36.6318L23.8396 36.619L23.8396 36.6062C23.8395 36.4955 23.8394 36.3925 23.9174 36.3145C23.9735 36.2583 24.0383 36.2281 24.1312 36.2281C24.3288 36.2281 24.413 36.3566 24.4314 36.4829H24.2413C24.2262 36.4246 24.196 36.3965 24.1312 36.3965C24.0966 36.3965 24.0707 36.4117 24.0567 36.43C24.0394 36.4527 24.0286 36.4786 24.0286 36.619C24.0286 36.7594 24.0394 36.7864 24.0567 36.8091C24.0707 36.8274 24.0966 36.8414 24.1312 36.8414C24.1711 36.8414 24.1981 36.8296 24.2154 36.8112C24.237 36.7896 24.2446 36.7583 24.2446 36.7291V36.7183H24.1312V36.5607H24.4325ZM23.7969 37.0037L23.5173 36.2348H23.3715L23.0918 37.0037H23.2894L23.3272 36.8892H23.5637L23.5993 37.0037H23.7969ZM23.514 36.7313H23.3801L23.4492 36.5261L23.514 36.7313ZM25.1805 37.0034L24.9008 36.2346H24.755L24.4754 37.0034H24.673L24.7108 36.889H24.9473L24.9829 37.0034H25.1805ZM24.7637 36.7313H24.8976L24.8328 36.5261L24.7637 36.7313ZM25.4476 37.0034V36.2346H25.2586V37.0034H25.4476ZM26.2038 36.2346V37.0034H26.0386L25.7924 36.6168V37.0034H25.6034V36.2346H25.7687L26.0149 36.6212V36.2346H26.2038Z" fill="#FF0000"/>
<path id="05" d="M26.2502 38.5692C25.4943 38.5908 24.7294 39.3701 24.4414 39.757C24.4414 40.3779 26.2502 41.0529 27.0871 40.9719C27.9239 40.8909 27.9779 39.4601 27.708 39.1361C27.438 38.8122 27.195 38.5422 26.2502 38.5692Z" fill="#EBBEAA"/>
<path id="04" d="M12.6988 39.6221C13.1577 39.3251 14.2916 39.2711 14.5346 39.2711C14.6695 39.6581 14.7667 40.4482 14.0756 40.513C13.2117 40.5939 12.2399 39.919 12.6988 39.6221Z" fill="#EBBEAA"/>
<path id="03" d="M13.4277 45.2373C8.43159 44.331 8.19943 42.1508 8.19043 41.107C8.47119 37.2195 12.2669 37.5164 12.5369 39.3791C13.1848 40.036 13.3591 40.0026 14.8855 40.2971C16.4243 40.594 18.1521 40.6749 21.0137 39.7841L24.0643 43.1316C22.0936 44.6164 19.5289 46.3442 13.4277 45.2373Z" fill="#333742"/>
<path id="02" d="M32.2165 38.8932C32.2165 38.1416 31.0754 35.113 30.4618 33.6289L27.6811 35.4566C28.1097 36.3169 28.0775 39.3704 27.0489 39.7317C25.7632 40.1834 17.669 38.8607 17.2307 39.1833C16.88 39.4414 16.5586 41.5815 16.5586 42.2159C19.3053 43.3128 27.3411 45.8293 29.7956 44.0549C31.0865 43.1218 32.2165 41.4742 32.2165 38.8932Z" fill="#343844"/>
<path id="01" d="M14.6151 38.8392C14.8095 38.7312 16.3699 39.1541 17.1258 39.3791C16.9098 39.5519 16.6399 41.6558 16.6129 41.9438C16.3969 41.9617 15.911 40.9781 15.506 40.7289C14.9931 40.4133 14.4171 40.225 14.0752 40.135C14.0842 40.054 14.113 39.8542 14.1562 39.7031C14.2102 39.5141 14.3722 38.9742 14.6151 38.8392Z" fill="#2F323D"/>
</g>
<g id="hand">
<path id="14_2" opacity="0.5" d="M28.2759 22.2393C29.4687 22.2393 30.4356 21.1877 30.4356 19.8906C30.4356 18.5934 29.4687 17.5419 28.2759 17.5419C27.0832 17.5419 26.1162 18.5934 26.1162 19.8906C26.1162 21.1877 27.0832 22.2393 28.2759 22.2393Z" fill="#C99584"/>
<path id="13_2" opacity="0.5" d="M12.0777 22.2393C10.8849 22.2393 9.91797 21.1877 9.91797 19.8906C9.91797 18.5934 10.8849 17.5419 12.0777 17.5419C13.2704 17.5419 14.2374 18.5934 14.2374 19.8906C14.2374 21.1877 13.2704 22.2393 12.0777 22.2393Z" fill="#C99584"/>
<path id="12_2" d="M12.0781 14.6678C12.0781 10.1949 15.7041 6.56885 20.1771 6.56885C24.65 6.56885 28.276 10.1949 28.276 14.6678V17.6291C28.276 18.1102 28.2392 18.5906 28.1659 19.0661L27.671 22.279C27.1027 25.9683 23.9279 28.6914 20.1951 28.6914C16.5415 28.6914 13.4101 26.08 12.754 22.4858L12.2316 19.6244C12.1295 19.0651 12.0781 18.4977 12.0781 17.9293V14.6678Z" fill="#F4D5CC"/>
<path id="11_2" d="M11.5648 12.2236C11.5286 8.92946 14.4266 7.85017 13.9135 8.47107C13.4005 9.09196 14.6155 10.6308 13.9135 11.1167C13.2116 11.6027 13.9945 13.1685 13.6166 13.7624C13.2386 14.3563 12.6352 14.2214 12.2937 15.3822C11.9522 16.5431 12.2397 18.803 12.2397 18.803C12.2667 18.8648 12.2397 18.9457 12.1857 18.9457C12.1317 18.9457 12.0507 18.9187 12.0288 18.803C12.0288 18.803 11.6188 17.1369 11.5648 12.2236Z" fill="#868686"/>
<path id="10_2" d="M28.7611 12.3064C28.7945 9.26456 26.1196 8.26792 26.5931 8.84127C27.0666 9.41461 25.9451 10.8356 26.5931 11.2843C27.241 11.733 26.5183 13.1789 26.8672 13.7274C27.2161 14.2758 27.773 14.1512 28.0883 15.2231C28.4035 16.2951 28.1381 18.3819 28.1381 18.3819C28.1132 18.4389 28.1381 18.5137 28.188 18.5137C28.2378 18.5137 28.3125 18.4888 28.3328 18.3819C28.3328 18.3819 28.7113 16.8435 28.7611 12.3064Z" fill="#868686"/>
<path id="09_2" d="M20.4469 10.2528C15.9654 10.2528 12.8764 10.9817 12.186 12.4767C11.4956 13.9717 11.6536 14.4373 11.6191 14.0323C11.5845 13.6274 11.5381 13.1753 11.5381 12.3586C11.5381 7.05711 15.2366 6.25726 18.5841 6.58125C21.9317 6.90524 24.5428 10.2528 20.4469 10.2528Z" fill="#706F6F"/>
<path id="08" d="M19.8703 10.2264C23.9818 10.2264 28.1061 8.6787 28.2757 11.6836C28.9236 12.7095 28.6806 13.8974 28.7616 12.2235C29.1104 5.01554 18.125 0.163062 12.5098 8.55895C12.5098 8.55895 15.7584 10.2264 19.8703 10.2264Z" fill="#706F6F"/>
<path id="07_2" d="M19.9569 18.2592L20.7206 18.7683C20.461 19.1577 20.2577 19.7421 20.2577 20.1673C20.2577 20.5772 20.4058 20.7496 20.859 20.7543L20.8786 20.7544V21.6723C19.8774 21.6723 19.3398 21.0675 19.3398 20.1673C19.3398 19.5574 19.5936 18.8171 19.938 18.2878L19.9569 18.2592Z" fill="#EBBAAA"/>
<path id="06_2" d="M23.5786 16.5401C23.9309 16.5401 24.2176 16.8213 24.2263 17.1715L24.2265 17.188V17.9439C24.2265 18.3017 23.9364 18.5918 23.5786 18.5918C23.2263 18.5918 22.9396 18.3106 22.9309 17.9604L22.9307 17.9439V17.188C22.9307 16.8302 23.2207 16.5401 23.5786 16.5401Z" fill="black"/>
<path id="05_2" d="M16.8022 16.5401C17.1545 16.5401 17.4412 16.8213 17.4499 17.1715L17.4501 17.188V17.9439C17.4501 18.3017 17.16 18.5918 16.8022 18.5918C16.4499 18.5918 16.1632 18.3106 16.1545 17.9604L16.1543 17.9439V17.188C16.1543 16.8302 16.4444 16.5401 16.8022 16.5401Z" fill="black"/>
<path id="04_2" d="M18.0166 10.6038C15.9379 10.0977 13.2382 11.2517 11.5645 11.5487C11.5645 7.90414 15.4519 4.17863 19.9063 4.07064C24.3608 3.96266 27.1144 6.90527 27.8163 8.36308C28.0893 8.93001 27.4653 9.979 26.0075 10.6038C24.3068 11.3327 21.1212 11.3597 18.0166 10.6038Z" fill="#2B2A2A"/>
<path id="03_2" d="M22.0004 15.755L21.5547 14.7947L24.6057 14.092L25.5819 14.6484L25.634 15.1858L24.1352 15.1141L22.0004 15.755Z" fill="#393939"/>
<path id="02_2" d="M18.1386 15.7236L18.5671 14.7546L15.4817 14.1124L14.5109 14.6879L14.4697 15.2263L15.9766 15.125L18.1386 15.7236Z" fill="#393939"/>
<path id="01_2" d="M22.5086 22.9307C22.6336 22.7276 22.8996 22.6642 23.1028 22.7892C23.306 22.9143 23.3693 23.1803 23.2443 23.3835C23.0719 23.6637 22.6985 23.9699 22.2344 24.2005C21.6743 24.4788 21.0113 24.639 20.2848 24.639C19.5568 24.639 18.926 24.4788 18.3969 24.1941C17.9928 23.9766 17.6736 23.6997 17.4587 23.4205C17.3133 23.2314 17.3487 22.9602 17.5377 22.8147C17.723 22.6723 17.987 22.7033 18.1344 22.8824L18.1435 22.8937C18.2857 23.0787 18.5122 23.2751 18.8062 23.4333C19.21 23.6506 19.7003 23.7751 20.2848 23.7751C20.8759 23.7751 21.4077 23.6466 21.8501 23.4268C22.1726 23.2666 22.4189 23.067 22.5028 22.9397L22.5086 22.9307Z" fill="#C99584"/>
</g>
</g>
</g>
</g>
</svg>
