<svg width="20" height="21" viewBox="0 0 20 21" fill="none" xmlns="http://www.w3.org/2000/svg">
<path id="Shape" fill-rule="evenodd" clip-rule="evenodd" d="M17.9782 10.9893C17.9782 15.4075 14.399 18.9893 9.98397 18.9893C5.56889 18.9893 1.98976 15.4075 1.98976 10.9893C1.98976 6.57098 5.56889 2.98926 9.98397 2.98926C14.399 2.98926 17.9782 6.57098 17.9782 10.9893ZM19.9767 10.9893C19.9767 16.5121 15.5028 20.9893 9.98397 20.9893C4.46512 20.9893 -0.00878906 16.5121 -0.00878906 10.9893C-0.00878906 5.46641 4.46512 0.989258 9.98397 0.989258C15.5028 0.989258 19.9767 5.46641 19.9767 10.9893ZM12.563 14.2713C11.9323 14.77 11.1539 15.0899 10.3042 15.1545V11.8473L12.563 14.2713ZM13.0058 13.8664L10.6141 11.2998H14.137C14.0666 12.2916 13.6493 13.1874 13.0058 13.8664ZM9.70419 10.3233V6.84259C8.80807 6.9021 7.98949 7.24533 7.33733 7.78332L9.70419 10.3233ZM6.903 8.19733C6.29328 8.86818 5.89936 9.73895 5.831 10.6998H9.23491L6.903 8.19733ZM14.9804 11V10.6998H14.9715C14.9023 9.52993 14.4311 8.46828 13.6943 7.65122L13.7016 7.64337L13.5914 7.54053C12.751 6.66312 11.594 6.09173 10.3042 6.0101V6H9.98401H9.70419V6.00771C7.17428 6.14747 5.14614 8.17074 4.99649 10.6998H4.98763V11V11.2998H4.99647C5.07112 12.563 5.61442 13.7001 6.45483 14.5393L6.44752 14.5472L6.88616 14.9565L6.90408 14.9373C7.68416 15.5493 8.65067 15.9341 9.70419 15.9923V16H9.98401H10.3042V15.9899C12.8154 15.831 14.8229 13.8156 14.9716 11.2998H14.9804V11ZM10.3042 6.84547C11.2156 6.91483 12.045 7.27782 12.6981 7.84011L10.3042 10.4088V6.84547ZM9.70419 15.1574V11.9327L7.47457 14.3252C8.10274 14.8007 8.86986 15.102 9.70419 15.1574ZM5.83097 11.2998H9.47386L7.02317 13.9295C6.34516 13.2433 5.90364 12.3225 5.83097 11.2998ZM13.1238 8.26337L10.8532 10.6998H14.137C14.0709 9.77018 13.7 8.92488 13.1238 8.26337Z" fill="black"/>
</svg>
