<svg width="18" height="20" viewBox="0 0 18 20" fill="none" xmlns="http://www.w3.org/2000/svg">
<path id="Shape" d="M9.80501 0C8.70124 0 7.80645 0.89543 7.80645 2V4.01034C6.79097 4.03898 5.45581 4.1467 4.24281 4.55132C3.39273 4.83489 2.53029 5.28636 1.87584 6.02314C1.20309 6.78054 0.811523 7.77142 0.811523 9.00001C0.811523 10.3573 1.43191 11.3153 2.28065 11.9927C3.07293 12.6251 4.09039 13.0331 4.94288 13.3683L5.06995 13.4182C5.93323 13.7572 6.6286 14.0303 7.13842 14.3886C7.61425 14.7231 7.80645 15.0438 7.80645 15.5C7.80645 16.17 7.62139 16.5857 7.37563 16.8727C7.11471 17.1773 6.70844 17.4252 6.12947 17.6096C4.93293 17.9906 3.35378 18 1.8108 18C1.25891 18 0.811523 18.4477 0.811523 19C0.811523 19.5523 1.25891 20 1.8108 20L1.89109 20C3.3357 20.0002 5.21234 20.0004 6.73543 19.5154C7.53046 19.2623 8.31083 18.854 8.89305 18.1742C9.49043 17.4768 9.80501 16.58 9.80501 15.5C9.80501 14.2062 9.12285 13.3394 8.28713 12.752C7.57135 12.2489 6.6577 11.8917 5.87209 11.5845L5.67365 11.5068C4.77741 11.1544 4.04613 10.8436 3.52687 10.4292C3.06405 10.0598 2.81008 9.64269 2.81008 9.00001C2.81008 8.2286 3.04306 7.71947 3.36958 7.35187C3.71441 6.96365 4.22597 6.66513 4.87481 6.44869C5.8172 6.13433 6.89504 6.04015 7.80645 6.01198V8C7.80645 9.10457 8.70124 10 9.80501 10H13.8021C14.354 10 14.8014 9.55228 14.8014 9V8H16.7999C17.3518 8 17.7992 7.55228 17.7992 7C17.7992 6.44772 17.3518 6 16.7999 6H14.8014V4H16.7999C17.3518 4 17.7992 3.55228 17.7992 3C17.7992 2.44772 17.3518 2 16.7999 2H14.8014V1C14.8014 0.447715 14.354 0 13.8021 0H9.80501Z" fill="black"/>
</svg>
